<?xml version="1.0" encoding="UTF-8"?>
<svg id="Calque_2" data-name="Calque 2" xmlns="http://www.w3.org/2000/svg" viewBox="0 0 1030.07 607.09">
  <defs>
    <style>
      .cls-1 {
        fill: #fff;
        stroke: #1d1e1b;
        stroke-miterlimit: 10;
        stroke-width: 21px;
      }
    </style>
  </defs>
  <g id="Calque_1-2" data-name="Calque 1-2">
    <path class="cls-1" d="M30.65,596.58c-6.76,0-13.03-3.36-16.77-8.99-3.74-5.63-4.42-12.71-1.81-18.94L240.54,22.86c3.14-7.51,10.44-12.36,18.59-12.36h69.71c8.86,0,16.59,5.68,19.23,14.14l114.6,366.71L577.25,24.64c2.64-8.46,10.37-14.14,19.23-14.14h69.67c8.24,0,15.56,4.93,18.66,12.56l151.21,372.2L940.1,25.19c2.43-8.65,10.4-14.69,19.39-14.69h39.92c6.36,0,12.21,2.9,16.05,7.97,3.84,5.07,5.07,11.48,3.36,17.6l-149.08,534.19c-2.46,8.81-10.26,14.73-19.42,14.73-8.09,0-15.36-4.82-18.53-12.27l-198.85-467.88-151.34,465.67c-2.71,8.32-10.41,13.92-19.16,13.92s-16.12-5.28-19-13.44l-68.73-194.72h-188.03l-98.24,208.75c-3.3,7.03-10.46,11.57-18.23,11.57H30.65ZM352.58,308.58l-60.35-201.17-80.47,201.17h140.82Z"/>
  </g>
</svg>