<svg xmlns="http://www.w3.org/2000/svg" viewBox="0 0 24 24" id="email">
  <defs>
    <linearGradient id="a" x1="4.096" x2="19.904" y1="19.984" y2="4.177" gradientUnits="userSpaceOnUse">
      <stop offset="0" stop-color="#5433ff"></stop>
      <stop offset="1" stop-color="#20bdff"></stop>
    </linearGradient>
  </defs>
  <path fill="url(#a)" d="m3.683,4.601c.393-.217.838-.351,1.317-.351h14c.48,0,.924.134,1.317.351l-7.046,6.179c-.707.606-1.841.601-2.536.005L3.683,4.601Zm17.703,1.058l-7.132,6.254c-.632.542-1.43.837-2.254.837s-1.622-.295-2.248-.832L2.614,5.659c-.225.398-.364.852-.364,1.341v10c0,1.517,1.233,2.75,2.75,2.75h14c1.517,0,2.75-1.233,2.75-2.75V7c0-.489-.139-.942-.364-1.341Z"></path>
</svg>
