<svg id="SvgjsSvg1089" width="288" height="288" xmlns="http://www.w3.org/2000/svg" version="1.1" xmlns:xlink="http://www.w3.org/1999/xlink" xmlns:svgjs="http://svgjs.com/svgjs"><defs id="SvgjsDefs1090"></defs><g id="SvgjsG1091"><svg xmlns="http://www.w3.org/2000/svg" enable-background="new 0 0 24 24" viewBox="0 0 24 24" width="288" height="288"><linearGradient id="a" x1=".005" x2="23.547" y1="12" y2="12" gradientUnits="userSpaceOnUse"><stop offset="0" stop-color="#9e579d" class="stopColor6dbff2 svgShape"></stop><stop offset="1" stop-color="#303a52" class="stopColor1f4c73 svgShape"></stop></linearGradient><path fill="url(#a)" d="M21.4,11.1l-18-9C3.1,1.9,2.6,2,2.3,2.2C2,2.5,1.9,2.9,2.1,3.3L4.9,12l-2.9,8.7c-0.1,0.4,0,0.8,0.3,1.1
	C2.5,21.9,2.8,22,3,22c0.2,0,0.3,0,0.4-0.1l18-9c0.3-0.2,0.6-0.5,0.6-0.9S21.8,11.3,21.4,11.1z M4.7,5l12.1,6h-10L4.7,5z M6.7,13h10
	L4.7,19L6.7,13z"></path></svg></g></svg>